<svg width="48" height="48" viewBox="0 0 48 48" fill="none" xmlns="http://www.w3.org/2000/svg">
<g clip-path="url(#clip0_6_125)">
<path d="M17.0273 25.766L15.4492 27.344C15.0272 26.313 14.7932 25.188 14.7932 24V22C14.7932 21.453 15.2463 21 15.7933 21C16.3403 21 16.7933 21.453 16.7933 22V24C16.7933 24.609 16.8873 25.203 17.0273 25.766ZM34.4342 16.359L28.7933 22V24C28.7933 26.75 26.5433 29 23.7933 29C23.1993 29 22.6213 28.891 22.0903 28.703L20.5903 30.203C21.5433 30.703 22.6373 31 23.7933 31C27.6523 31 30.7932 27.859 30.7932 24V22C30.7932 21.453 31.2462 21 31.7932 21C32.3402 21 32.7932 21.453 32.7932 22V24C32.7932 28.625 29.2933 32.437 24.7933 32.937V35H28.7933C29.3403 35 29.7932 35.453 29.7932 36C29.7932 36.547 29.3403 37 28.7933 37H18.7933C18.2463 37 17.7933 36.547 17.7933 36C17.7933 35.453 18.2463 35 18.7933 35H22.7933V32.937C21.4653 32.796 20.2153 32.343 19.1213 31.671L15.1523 35.64C14.9493 35.843 14.6362 35.843 14.4332 35.64L13.1522 34.359C12.9492 34.156 12.9492 33.843 13.1522 33.64L32.4332 14.359C32.6362 14.156 32.9492 14.156 33.1522 14.359L34.4332 15.64C34.6362 15.843 34.6362 16.156 34.4332 16.359H34.4342ZM28.4963 14.297L18.7933 24V16C18.7933 13.25 21.0433 11 23.7933 11C25.9492 11 27.7933 12.391 28.4963 14.297Z" fill="black"/>
</g>
<defs>
<clipPath id="clip0_6_125">
<rect width="48" height="48" fill="white"/>
</clipPath>
</defs>
</svg>
