<svg width="48" height="48" viewBox="0 0 48 48" fill="none" xmlns="http://www.w3.org/2000/svg">
<g clip-path="url(#clip0_6_161)">
<path d="M33 21V23C33 27.625 29.5 31.437 25 31.937V34H29C29.547 34 30 34.453 30 35C30 35.547 29.547 36 29 36H19C18.453 36 18 35.547 18 35C18 34.453 18.453 34 19 34H23V31.937C18.5 31.437 15 27.625 15 23V21C15 20.453 15.453 20 16 20C16.547 20 17 20.453 17 21V23C17 26.859 20.141 30 24 30C27.859 30 31 26.859 31 23V21C31 20.453 31.453 20 32 20C32.547 20 33 20.453 33 21ZM29 15V23C29 25.75 26.75 28 24 28C21.25 28 19 25.75 19 23V15C19 12.25 21.25 10 24 10C26.75 10 29 12.25 29 15Z" fill="black"/>
</g>
<defs>
<clipPath id="clip0_6_161">
<rect width="48" height="48" fill="white"/>
</clipPath>
</defs>
</svg>
