<svg width="48" height="48" viewBox="0 0 48 48" fill="none" xmlns="http://www.w3.org/2000/svg">
<g clip-path="url(#clip0_6_19)">
<path d="M20.9375 12L14.9375 18H12H10V30H14.9375L17.4062 32.4688L22 27.875V12H20.9375ZM27.4375 14.25C26.6806 14.4298 26.472 15.6396 27.125 16.0625C28.4116 17.1217 29.3757 18.4407 30 19.875L31.5 18.375C30.7585 16.919 29.7096 15.5987 28.375 14.5C28.1584 14.3032 27.8523 14.209 27.5625 14.25C27.5209 14.2474 27.4791 14.2474 27.4375 14.25ZM24.625 18.6875C23.9096 18.8715 23.6728 19.9765 24.25 20.4375C25.2798 21.4758 25.7383 22.84 25.6875 24.1875L27.5312 22.3438C27.2425 21.1159 26.6327 19.9531 25.6875 19C25.4572 18.7438 25.088 18.6207 24.75 18.6875C24.7084 18.6849 24.6666 18.6849 24.625 18.6875ZM32.5938 21.5312L30.8125 23.3125C30.9789 25.8192 30.2589 28.3938 28.5625 30.5C28.1084 31.0638 27.742 31.4752 27.1875 31.9375C26.6573 32.2109 26.4931 33.0105 26.875 33.4688C27.2569 33.927 28.073 33.9097 28.4375 33.4375C29.0782 32.9033 29.6008 32.4008 30.125 31.75C32.5135 28.7845 33.3004 25.0143 32.5938 21.5312ZM27 27.125L24.6875 29.4375C25.0501 29.4555 25.4343 29.3118 25.625 29C25.641 28.984 25.6795 29.008 25.6875 29C26.2388 28.441 26.6719 27.798 27 27.125ZM22 32.125L19.5625 34.5625L21.0625 36.0625L22 36V32.125Z" fill="white"/>
<path d="M33.9375 11.9375L11.9375 33.9375L14.0625 36.0625L36.0625 14.0625L33.9375 11.9375Z" fill="white"/>
<path d="M20.9375 12L14.9375 18H12H10V30H14.9375L17.4062 32.4688L22 27.875V12H20.9375ZM27.4375 14.25C26.6806 14.4298 26.472 15.6396 27.125 16.0625C28.4116 17.1217 29.3757 18.4407 30 19.875L31.5 18.375C30.7585 16.919 29.7096 15.5987 28.375 14.5C28.1584 14.3032 27.8523 14.209 27.5625 14.25C27.5209 14.2474 27.4791 14.2474 27.4375 14.25ZM24.625 18.6875C23.9096 18.8715 23.6728 19.9765 24.25 20.4375C25.2798 21.4758 25.7383 22.84 25.6875 24.1875L27.5312 22.3438C27.2425 21.1159 26.6327 19.9531 25.6875 19C25.4572 18.7438 25.088 18.6207 24.75 18.6875C24.7084 18.6849 24.6666 18.6849 24.625 18.6875ZM32.5938 21.5312L30.8125 23.3125C30.9789 25.8192 30.2589 28.3938 28.5625 30.5C28.1084 31.0638 27.742 31.4752 27.1875 31.9375C26.6573 32.2109 26.4931 33.0105 26.875 33.4688C27.2569 33.927 28.073 33.9097 28.4375 33.4375C29.0782 32.9033 29.6008 32.4008 30.125 31.75C32.5135 28.7845 33.3004 25.0143 32.5938 21.5312ZM27 27.125L24.6875 29.4375C25.0501 29.4555 25.4343 29.3118 25.625 29C25.641 28.984 25.6795 29.008 25.6875 29C26.2388 28.441 26.6719 27.798 27 27.125ZM22 32.125L19.5625 34.5625L21.0625 36.0625L22 36V32.125Z" fill="white"/>
<path d="M33.9375 11.9375L11.9375 33.9375L14.0625 36.0625L36.0625 14.0625L33.9375 11.9375Z" fill="white"/>
</g>
<defs>
<clipPath id="clip0_6_19">
<rect width="48" height="48" fill="white"/>
</clipPath>
</defs>
</svg>
