<svg width="48" height="48" viewBox="0 0 48 48" fill="none" xmlns="http://www.w3.org/2000/svg">
<path d="M20.9398 12.0071L14.9398 18.0071H12.0023H10.0023V30.0071H14.9398L21.0648 36.0696L22.0023 36.0072V12.0072L20.9398 12.0071Z" fill="white"/>
<path d="M24.6273 18.6946C23.9119 18.8786 23.6751 19.9836 24.2523 20.4446C26.2162 22.4248 26.2104 25.584 24.2523 27.5696C24.2363 27.5856 24.2603 27.6248 24.2523 27.632C23.7383 27.9464 23.6409 28.7663 24.0669 29.1923C24.493 29.6184 25.3129 29.521 25.6273 29.007C25.6433 28.991 25.6817 29.015 25.6897 29.007C28.4076 26.251 28.4156 21.7556 25.6897 19.007C25.4593 18.7508 25.0902 18.6277 24.7522 18.6945C24.7106 18.6919 24.6689 18.692 24.6273 18.6946Z" fill="white"/>
<path d="M27.4398 14.2571C26.6829 14.4368 26.4743 15.6467 27.1273 16.0696C31.478 19.6513 32.1098 26.1057 28.5648 30.5071C28.1107 31.0708 27.7443 31.4823 27.1898 31.9446C26.6596 32.2179 26.4979 33.0154 26.8798 33.4737C27.2617 33.932 28.0753 33.9168 28.4398 33.4446C29.0806 32.9104 29.6032 32.4078 30.1273 31.7571C34.3495 26.5148 33.5652 18.778 28.3773 14.5071C28.1607 14.3103 27.8546 14.2161 27.5648 14.2571C27.5232 14.2545 27.4814 14.2545 27.4398 14.2571Z" fill="white"/>
<path opacity="0.35" d="M30.3773 10.0071C29.6371 10.219 29.4721 11.4152 30.1273 11.8196C36.798 17.0619 38.0027 26.7595 32.8148 33.5071C31.9815 34.5909 31.1991 35.3528 30.1273 36.1946C29.7019 36.5055 29.5977 37.1754 29.9085 37.6008C30.2194 38.0263 30.8894 38.1305 31.3148 37.8196C32.4983 36.89 33.4579 35.8904 34.3773 34.6946C40.2229 27.0915 38.8386 16.1073 31.3148 10.1946C31.0877 10.0196 30.7831 9.94931 30.5023 10.0072C30.4607 10.0046 30.4189 10.0045 30.3773 10.0071Z" fill="white"/>
</svg>
