<svg width="120" height="120" viewBox="0 0 120 120" fill="none" xmlns="http://www.w3.org/2000/svg">
<path d="M60.1148 107.71C88.2748 107.71 111.537 85.6719 113.374 58.1241C113.374 59.3484 113.68 60.2667 113.68 61.491C113.68 90.8754 89.8052 115.056 60.1148 115.056C30.7304 115.056 6.54956 91.1814 6.54956 61.491C6.54956 60.2667 6.54956 59.3484 6.85565 58.1241C8.69217 85.6719 31.9548 107.71 60.1148 107.71Z" fill="#B2B2B2"/>
<path d="M60.1148 112.278C89.698 112.278 113.68 88.2961 113.68 58.7129C113.68 29.1296 89.698 5.14764 60.1148 5.14764C30.5315 5.14764 6.54956 29.1296 6.54956 58.7129C6.54956 88.2961 30.5315 112.278 60.1148 112.278Z" fill="#283836"/>
<path d="M98.0057 20.9194C118.853 41.7667 118.853 75.7968 98.0057 96.6441C77.1584 117.491 43.1283 117.491 22.281 96.6441" fill="black" fill-opacity="0.153846"/>
<path d="M34.6492 49.2213C36.3958 49.7888 37.1819 51.3315 36.6144 53.0782C36.0469 54.8248 34.5041 55.6109 32.7575 55.0434L21.1132 51.2599C19.3666 50.6924 18.5805 49.1497 19.148 47.403C19.7156 45.6564 21.2583 44.8703 23.005 45.4378L34.6492 49.2213Z" fill="#696969"/>
<path d="M34.6756 47.2806C36.4223 47.8481 37.2084 49.3909 36.6408 51.1375C36.0733 52.8842 34.5305 53.6703 32.7839 53.1027L21.1397 49.3193C19.393 48.7518 18.607 47.209 19.1745 45.4624C19.742 43.7157 21.2848 42.9297 23.0314 43.4972L34.6756 47.2806Z" fill="white"/>
</svg>
