<svg width="120" height="120" viewBox="0 0 120 120" fill="none" xmlns="http://www.w3.org/2000/svg">
<path d="M60.1148 107.71C88.2748 107.71 111.537 85.6719 113.374 58.1241C113.374 59.3484 113.68 60.2667 113.68 61.491C113.68 90.8754 89.8052 115.056 60.1148 115.056C30.7304 115.056 6.54956 91.1814 6.54956 61.491C6.54956 60.2667 6.54956 59.3484 6.85565 58.1241C8.69217 85.6719 31.9548 107.71 60.1148 107.71Z" fill="#BBBBBB"/>
<path d="M60.1148 112.278C89.698 112.278 113.68 88.2961 113.68 58.7129C113.68 29.1296 89.698 5.14764 60.1148 5.14764C30.5315 5.14764 6.54956 29.1296 6.54956 58.7129C6.54956 88.2961 30.5315 112.278 60.1148 112.278Z" fill="#283836"/>
<path d="M98.0057 20.9194C118.853 41.7667 118.853 75.7968 98.0057 96.6441C77.1584 117.491 43.1283 117.491 22.281 96.6441" fill="black" fill-opacity="0.153846"/>
<path d="M46.3127 36.4274C47.3922 37.9132 47.1213 39.6234 45.6355 40.7029C44.1498 41.7823 42.4396 41.5115 41.3601 40.0257L34.1636 30.1205C33.0841 28.6347 33.355 26.9246 34.8407 25.8451C36.3265 24.7656 38.0367 25.0365 39.1162 26.5223L46.3127 36.4274Z" fill="#696969"/>
<path d="M46.3075 34.5927C47.387 36.0785 47.1161 37.7887 45.6303 38.8682C44.1446 39.9476 42.4344 39.6768 41.3549 38.191L34.1584 28.2858C33.0789 26.8 33.3498 25.0899 34.8355 24.0104C36.3213 22.9309 38.0315 23.2018 39.111 24.6875L46.3075 34.5927Z" fill="white"/>
</svg>
