<svg width="120" height="120" viewBox="0 0 120 120" fill="none" xmlns="http://www.w3.org/2000/svg">
<path d="M60.1148 107.71C88.2748 107.71 111.537 85.6719 113.374 58.1241C113.374 59.3484 113.68 60.2667 113.68 61.491C113.68 90.8754 89.8052 115.056 60.1148 115.056C30.7304 115.056 6.54956 91.1814 6.54956 61.491C6.54956 60.2667 6.54956 59.3484 6.85565 58.1241C8.69217 85.6719 31.9548 107.71 60.1148 107.71Z" fill="#BBBBBB"/>
<path d="M60.1148 112.278C89.698 112.278 113.68 88.2961 113.68 58.7129C113.68 29.1296 89.698 5.14764 60.1148 5.14764C30.5315 5.14764 6.54956 29.1296 6.54956 58.7129C6.54956 88.2961 30.5315 112.278 60.1148 112.278Z" fill="#283836"/>
<path d="M98.0057 20.9194C118.853 41.7667 118.853 75.7968 98.0057 96.6441C77.1584 117.491 43.1283 117.491 22.281 96.6441" fill="black" fill-opacity="0.153846"/>
<path d="M67.4251 33.7082C67.1378 35.5221 65.737 36.5398 63.9231 36.2525C62.1092 35.9652 61.0914 34.5644 61.3787 32.7505L63.294 20.6578C63.5813 18.8439 64.9821 17.8261 66.7961 18.1134C68.61 18.4007 69.6277 19.8015 69.3404 21.6154L67.4251 33.7082Z" fill="#696969"/>
<path d="M67.4655 31.9999C67.1782 33.8139 65.7774 34.8316 63.9635 34.5443C62.1496 34.257 61.1318 32.8562 61.4191 31.0423L63.3344 18.9496C63.6217 17.1356 65.0225 16.1179 66.8364 16.4052C68.6504 16.6925 69.6681 18.0933 69.3808 19.9072L67.4655 31.9999Z" fill="white"/>
</svg>
