<svg width="120" height="120" viewBox="0 0 120 120" fill="none" xmlns="http://www.w3.org/2000/svg">
<path d="M60.1148 107.71C88.2748 107.71 111.537 85.6719 113.374 58.1241C113.374 59.3484 113.68 60.2667 113.68 61.491C113.68 90.8754 89.8052 115.056 60.1148 115.056C30.7304 115.056 6.54956 91.1814 6.54956 61.491C6.54956 60.2667 6.54956 59.3484 6.85565 58.1241C8.69217 85.6719 31.9548 107.71 60.1148 107.71Z" fill="#BBBBBB"/>
<path d="M60.1148 112.278C89.698 112.278 113.68 88.2961 113.68 58.7129C113.68 29.1296 89.698 5.14764 60.1148 5.14764C30.5315 5.14764 6.54956 29.1296 6.54956 58.7129C6.54956 88.2961 30.5315 112.278 60.1148 112.278Z" fill="#283836"/>
<path d="M98.0057 20.9194C118.853 41.7667 118.853 75.7968 98.0057 96.6441C77.1584 117.491 43.1283 117.491 22.281 96.6441" fill="black" fill-opacity="0.153846"/>
<path d="M75.3898 37.2752C74.556 38.9115 72.9093 39.4466 71.2729 38.6128C69.6366 37.7791 69.1015 36.1323 69.9353 34.496L75.4937 23.587C76.3274 21.9506 77.9742 21.4155 79.6105 22.2493C81.2469 23.0831 81.782 24.7298 80.9482 26.3662L75.3898 37.2752Z" fill="#696969"/>
<path d="M75.3938 35.6154C74.56 37.2517 72.9133 37.7868 71.2769 36.953C69.6406 36.1193 69.1055 34.4725 69.9393 32.8362L75.4977 21.9271C76.3315 20.2908 77.9782 19.7557 79.6146 20.5895C81.2509 21.4233 81.786 23.07 80.9522 24.7064L75.3938 35.6154Z" fill="white"/>
</svg>
