<svg width="120" height="120" viewBox="0 0 120 120" fill="none" xmlns="http://www.w3.org/2000/svg">
<path d="M60.1148 107.71C88.2748 107.71 111.537 85.6718 113.374 58.124C113.374 59.3484 113.68 60.2666 113.68 61.491C113.68 90.8753 89.8052 115.056 60.1148 115.056C30.7304 115.056 6.54956 91.1814 6.54956 61.491C6.54956 60.2666 6.54956 59.3484 6.85565 58.124C8.69217 85.6718 31.9548 107.71 60.1148 107.71Z" fill="#BBBBBB"/>
<path d="M60.1148 112.278C89.698 112.278 113.68 88.2961 113.68 58.7129C113.68 29.1296 89.698 5.14764 60.1148 5.14764C30.5315 5.14764 6.54956 29.1296 6.54956 58.7129C6.54956 88.2961 30.5315 112.278 60.1148 112.278Z" fill="#283836"/>
<path d="M98.0057 20.9194C118.853 41.7667 118.853 75.7968 98.0057 96.6441C77.1584 117.491 43.1282 117.491 22.2809 96.6441" fill="black" fill-opacity="0.153846"/>
<path d="M81.8194 43.122C80.5208 44.4206 78.7893 44.4206 77.4907 43.122C76.192 41.8234 76.192 40.0919 77.4907 38.7933L86.1481 30.1358C87.4467 28.8372 89.1782 28.8372 90.4768 30.1358C91.7754 31.4344 91.7754 33.1659 90.4768 34.4646L81.8194 43.122Z" fill="#696969"/>
<path d="M81.8168 41.5038C80.5182 42.8024 78.7867 42.8024 77.4881 41.5038C76.1895 40.2052 76.1895 38.4737 77.4881 37.175L86.1455 28.5176C87.4442 27.219 89.1756 27.219 90.4743 28.5176C91.7729 29.8162 91.7729 31.5477 90.4743 32.8463L81.8168 41.5038Z" fill="white"/>
</svg>
