<svg width="120" height="120" viewBox="0 0 120 120" fill="none" xmlns="http://www.w3.org/2000/svg">
<path d="M60.1148 107.71C88.2748 107.71 111.537 85.6719 113.374 58.1241C113.374 59.3484 113.68 60.2667 113.68 61.491C113.68 90.8754 89.8052 115.056 60.1148 115.056C30.7304 115.056 6.54956 91.1814 6.54956 61.491C6.54956 60.2667 6.54956 59.3484 6.85565 58.1241C8.69217 85.6719 31.9548 107.71 60.1148 107.71Z" fill="#BBBBBB"/>
<path d="M60.1148 112.278C89.698 112.278 113.68 88.2961 113.68 58.7129C113.68 29.1296 89.698 5.14764 60.1148 5.14764C30.5315 5.14764 6.54956 29.1296 6.54956 58.7129C6.54956 88.2961 30.5315 112.278 60.1148 112.278Z" fill="#283836"/>
<path d="M98.0057 20.9194C118.853 41.7667 118.853 75.7968 98.0057 96.6441C77.1584 117.491 43.1282 117.491 22.2809 96.6441" fill="black" fill-opacity="0.153846"/>
<path d="M63.145 32.8994C63.145 34.7359 61.9206 35.9603 60.0841 35.9603C58.2476 35.9603 57.0232 34.7359 57.0232 32.8994L57.0232 20.6559C57.0232 18.8194 58.2476 17.5951 60.0841 17.5951C61.9206 17.5951 63.145 18.8194 63.145 20.6559V32.8994Z" fill="white"/>
<path d="M63.1757 31.165C63.1757 33.0016 61.9513 34.2259 60.1148 34.2259C58.2783 34.2259 57.0539 33.0016 57.0539 31.165V18.9216C57.0539 17.085 58.2783 15.8607 60.1148 15.8607C61.9513 15.8607 63.1757 17.085 63.1757 18.9216V31.165Z" fill="white"/>
</svg>
