<svg width="120" height="120" viewBox="0 0 120 120" fill="none" xmlns="http://www.w3.org/2000/svg">
<path d="M60.1148 107.71C88.2748 107.71 111.537 85.6719 113.374 58.1241C113.374 59.3484 113.68 60.2667 113.68 61.491C113.68 90.8754 89.8052 115.056 60.1148 115.056C30.7304 115.056 6.54956 91.1814 6.54956 61.491C6.54956 60.2667 6.54956 59.3484 6.85565 58.1241C8.69217 85.6719 31.9548 107.71 60.1148 107.71Z" fill="#B2B2B2"/>
<path d="M60.1148 112.278C89.698 112.278 113.68 88.2961 113.68 58.7129C113.68 29.1296 89.698 5.14764 60.1148 5.14764C30.5315 5.14764 6.54956 29.1296 6.54956 58.7129C6.54956 88.2961 30.5315 112.278 60.1148 112.278Z" fill="#283836"/>
<path d="M98.0057 20.9194C118.853 41.7667 118.853 75.7968 98.0057 96.6441C77.1584 117.491 43.1283 117.491 22.281 96.6441" fill="black" fill-opacity="0.153846"/>
<path d="M33.1133 53.3624C34.9273 53.6497 35.945 55.0505 35.6577 56.8644C35.3704 58.6783 33.9696 59.6961 32.1557 59.4088L20.063 57.4935C18.249 57.2062 17.2313 55.8054 17.5186 53.9915C17.8059 52.1776 19.2067 51.1598 21.0206 51.4471L33.1133 53.3624Z" fill="#696969"/>
<path d="M33.1799 51.387C34.9938 51.6743 36.0116 53.0751 35.7243 54.889C35.437 56.703 34.0362 57.7207 32.2223 57.4334L20.1295 55.5181C18.3156 55.2308 17.2979 53.83 17.5852 52.0161C17.8724 50.2022 19.2733 49.1844 21.0872 49.4717L33.1799 51.387Z" fill="white"/>
</svg>
