<svg width="120" height="120" viewBox="0 0 120 120" fill="none" xmlns="http://www.w3.org/2000/svg">
<path d="M60.1148 107.71C88.2748 107.71 111.537 85.6718 113.374 58.124C113.374 59.3484 113.68 60.2666 113.68 61.491C113.68 90.8753 89.8052 115.056 60.1148 115.056C30.7304 115.056 6.54956 91.1814 6.54956 61.491C6.54956 60.2666 6.54956 59.3484 6.85565 58.124C8.69217 85.6718 31.9548 107.71 60.1148 107.71Z" fill="#BBBBBB"/>
<path d="M60.1148 112.278C89.698 112.278 113.68 88.2961 113.68 58.7129C113.68 29.1296 89.698 5.14764 60.1148 5.14764C30.5315 5.14764 6.54956 29.1296 6.54956 58.7129C6.54956 88.2961 30.5315 112.278 60.1148 112.278Z" fill="#283836"/>
<path d="M98.0057 20.9194C118.853 41.7667 118.853 75.7968 98.0057 96.6441C77.1584 117.491 43.1283 117.491 22.281 96.6441" fill="black" fill-opacity="0.153846"/>
<path d="M87.3034 54.8413C85.5568 55.4089 84.014 54.6228 83.4465 52.8761C82.879 51.1295 83.6651 49.5867 85.4117 49.0192L97.056 45.2358C98.8026 44.6683 100.345 45.4543 100.913 47.201C101.48 48.9476 100.694 50.4904 98.9477 51.0579L87.3034 54.8413Z" fill="#696969"/>
<path d="M87.3095 53.2902C85.5628 53.8577 84.0201 53.0716 83.4526 51.325C82.885 49.5784 83.6711 48.0356 85.4178 47.4681L97.062 43.6846C98.8086 43.1171 100.351 43.9032 100.919 45.6498C101.486 47.3965 100.7 48.9392 98.9537 49.5068L87.3095 53.2902Z" fill="white"/>
</svg>
