<svg width="120" height="120" viewBox="0 0 120 120" fill="none" xmlns="http://www.w3.org/2000/svg">
<path d="M60.1148 107.71C88.2748 107.71 111.537 85.6718 113.374 58.124C113.374 59.3484 113.68 60.2666 113.68 61.491C113.68 90.8753 89.8052 115.056 60.1148 115.056C30.7304 115.056 6.54956 91.1814 6.54956 61.491C6.54956 60.2666 6.54956 59.3484 6.85565 58.124C8.69217 85.6718 31.9548 107.71 60.1148 107.71Z" fill="#BBBBBB"/>
<path d="M60.1148 112.278C89.698 112.278 113.68 88.2961 113.68 58.7129C113.68 29.1296 89.698 5.14764 60.1148 5.14764C30.5315 5.14764 6.54956 29.1296 6.54956 58.7129C6.54956 88.2961 30.5315 112.278 60.1148 112.278Z" fill="#283836"/>
<path d="M98.0057 20.9194C118.853 41.7667 118.853 75.7968 98.0057 96.6441C77.1584 117.491 43.1283 117.491 22.281 96.6441" fill="black" fill-opacity="0.153846"/>
<path d="M86.0845 50.6627C84.4482 51.4965 82.8014 50.9614 81.9677 49.3251C81.1339 47.6887 81.6689 46.042 83.3053 45.2082L94.2143 39.6498C95.8507 38.816 97.4974 39.3511 98.3312 40.9874C99.1649 42.6238 98.6299 44.2705 96.9935 45.1043L86.0845 50.6627Z" fill="#696969"/>
<path d="M86.1059 49.0889C84.4695 49.9226 82.8228 49.3876 81.989 47.7512C81.1552 46.1149 81.6903 44.4681 83.3266 43.6344L94.2357 38.0759C95.872 37.2422 97.5188 37.7772 98.3525 39.4136C99.1863 41.0499 98.6512 42.6967 97.0149 43.5304L86.1059 49.0889Z" fill="white"/>
</svg>
