<svg width="120" height="120" viewBox="0 0 120 120" fill="none" xmlns="http://www.w3.org/2000/svg">
<path d="M60.1148 107.71C88.2748 107.71 111.537 85.6719 113.374 58.1241C113.374 59.3484 113.68 60.2667 113.68 61.491C113.68 90.8754 89.8052 115.056 60.1148 115.056C30.7304 115.056 6.54956 91.1814 6.54956 61.491C6.54956 60.2667 6.54956 59.3484 6.85565 58.1241C8.69217 85.6719 31.9548 107.71 60.1148 107.71Z" fill="#BBBBBB"/>
<path d="M60.1148 112.278C89.698 112.278 113.68 88.2961 113.68 58.7129C113.68 29.1296 89.698 5.14764 60.1148 5.14764C30.5315 5.14764 6.54956 29.1296 6.54956 58.7129C6.54956 88.2961 30.5315 112.278 60.1148 112.278Z" fill="#283836"/>
<path d="M98.0057 20.9194C118.853 41.7667 118.853 75.7968 98.0057 96.6441C77.1584 117.491 43.1283 117.491 22.281 96.6441" fill="black" fill-opacity="0.153846"/>
<path d="M50.2482 34.5596C51.0819 36.196 50.5469 37.8427 48.9105 38.6765C47.2742 39.5102 45.6274 38.9752 44.7937 37.3388L39.2352 26.4298C38.4015 24.7934 38.9365 23.1467 40.5729 22.3129C42.2092 21.4792 43.856 22.0142 44.6898 23.6506L50.2482 34.5596Z" fill="#696969"/>
<path d="M50.2688 32.7467C51.1026 34.383 50.5675 36.0298 48.9312 36.8635C47.2948 37.6973 45.6481 37.1622 44.8143 35.5259L39.2559 24.6169C38.4221 22.9805 38.9572 21.3338 40.5935 20.5C42.2299 19.6662 43.8766 20.2013 44.7104 21.8377L50.2688 32.7467Z" fill="white"/>
</svg>
