<svg width="120" height="120" viewBox="0 0 120 120" fill="none" xmlns="http://www.w3.org/2000/svg">
<path d="M60.1148 107.71C88.2748 107.71 111.537 85.6719 113.374 58.1241C113.374 59.3484 113.68 60.2667 113.68 61.491C113.68 90.8754 89.8052 115.056 60.1148 115.056C30.7304 115.056 6.54956 91.1814 6.54956 61.491C6.54956 60.2667 6.54956 59.3484 6.85565 58.1241C8.69217 85.6719 31.9548 107.71 60.1148 107.71Z" fill="#BBBBBB"/>
<path d="M60.1148 112.278C89.698 112.278 113.68 88.2961 113.68 58.7129C113.68 29.1296 89.698 5.14764 60.1148 5.14764C30.5315 5.14764 6.54956 29.1296 6.54956 58.7129C6.54956 88.2961 30.5315 112.278 60.1148 112.278Z" fill="#283836"/>
<path d="M98.0057 20.9194C118.853 41.7667 118.853 75.7968 98.0057 96.6441C77.1584 117.491 43.1283 117.491 22.281 96.6441" fill="black" fill-opacity="0.153846"/>
<path d="M71.5696 35.1765C71.0021 36.9232 69.4593 37.7093 67.7127 37.1417C65.966 36.5742 65.1799 35.0315 65.7475 33.2848L69.5309 21.6406C70.0984 19.8939 71.6412 19.1079 73.3878 19.6754C75.1345 20.2429 75.9205 21.7857 75.353 23.5323L71.5696 35.1765Z" fill="#696969"/>
<path d="M71.5719 33.4957C71.0044 35.2423 69.4616 36.0284 67.715 35.4609C65.9684 34.8934 65.1823 33.3506 65.7498 31.6039L69.5332 19.9597C70.1008 18.2131 71.6435 17.427 73.3902 17.9945C75.1368 18.562 75.9229 20.1048 75.3554 21.8514L71.5719 33.4957Z" fill="white"/>
</svg>
