<svg width="120" height="120" viewBox="0 0 120 120" fill="none" xmlns="http://www.w3.org/2000/svg">
<path d="M60.1148 107.71C88.2748 107.71 111.537 85.6718 113.374 58.124C113.374 59.3484 113.68 60.2666 113.68 61.491C113.68 90.8753 89.8052 115.056 60.1148 115.056C30.7304 115.056 6.54956 91.1814 6.54956 61.491C6.54956 60.2666 6.54956 59.3484 6.85565 58.124C8.69217 85.6718 31.9548 107.71 60.1148 107.71Z" fill="#BBBBBB"/>
<path d="M60.1148 112.278C89.698 112.278 113.68 88.2961 113.68 58.7129C113.68 29.1296 89.698 5.14764 60.1148 5.14764C30.5315 5.14764 6.54956 29.1296 6.54956 58.7129C6.54956 88.2961 30.5315 112.278 60.1148 112.278Z" fill="#283836"/>
<path d="M98.0057 20.9194C118.853 41.7667 118.853 75.7968 98.0057 96.6441C77.1584 117.491 43.1282 117.491 22.2809 96.6441" fill="black" fill-opacity="0.153846"/>
<path d="M78.8346 39.9456C77.7552 41.4314 76.045 41.7022 74.5592 40.6227C73.0734 39.5432 72.8026 37.8331 73.8821 36.3473L81.0786 26.4421C82.1581 24.9563 83.8682 24.6855 85.354 25.765C86.8398 26.8444 87.1107 28.5546 86.0312 30.0404L78.8346 39.9456Z" fill="#696969"/>
<path d="M78.837 38.3068C77.7575 39.7926 76.0473 40.0635 74.5616 38.984C73.0758 37.9045 72.8049 36.1943 73.8844 34.7086L81.0809 24.8034C82.1604 23.3176 83.8706 23.0467 85.3564 24.1262C86.8422 25.2057 87.113 26.9159 86.0335 28.4017L78.837 38.3068Z" fill="white"/>
</svg>
