<svg width="120" height="120" viewBox="0 0 120 120" fill="none" xmlns="http://www.w3.org/2000/svg">
<path d="M60.1148 107.71C88.2748 107.71 111.537 85.6718 113.374 58.124C113.374 59.3484 113.68 60.2666 113.68 61.491C113.68 90.8753 89.8052 115.056 60.1148 115.056C30.7304 115.056 6.54956 91.1814 6.54956 61.491C6.54956 60.2666 6.54956 59.3484 6.85565 58.124C8.69217 85.6718 31.9548 107.71 60.1148 107.71Z" fill="#BBBBBB"/>
<path d="M60.1148 112.278C89.698 112.278 113.68 88.2961 113.68 58.7129C113.68 29.1296 89.698 5.14764 60.1148 5.14764C30.5315 5.14764 6.54956 29.1296 6.54956 58.7129C6.54956 88.2961 30.5315 112.278 60.1148 112.278Z" fill="#283836"/>
<path d="M98.0057 20.9194C118.853 41.7667 118.853 75.7968 98.0057 96.6441C77.1584 117.491 43.1283 117.491 22.281 96.6441" fill="black" fill-opacity="0.153846"/>
<path d="M84.2269 46.7262C82.7411 47.8057 81.031 47.5348 79.9515 46.0491C78.872 44.5633 79.1429 42.8531 80.6286 41.7736L90.5338 34.5771C92.0196 33.4976 93.7298 33.7685 94.8092 35.2543C95.8887 36.74 95.6179 38.4502 94.1321 39.5297L84.2269 46.7262Z" fill="#696969"/>
<path d="M84.2598 45.1275C82.774 46.207 81.0639 45.9361 79.9844 44.4504C78.9049 42.9646 79.1758 41.2544 80.6615 40.1749L90.5667 32.9784C92.0525 31.8989 93.7627 32.1698 94.8422 33.6556C95.9216 35.1413 95.6508 36.8515 94.165 37.931L84.2598 45.1275Z" fill="white"/>
</svg>
