<svg width="120" height="120" viewBox="0 0 120 120" fill="none" xmlns="http://www.w3.org/2000/svg">
<path d="M60.5652 108.586C88.7252 108.586 111.988 86.5478 113.824 59C113.824 60.2243 114.13 61.1426 114.13 62.367C114.13 91.7513 90.2557 115.932 60.5652 115.932C31.1809 115.932 7 92.0574 7 62.367C7 61.1426 7 60.2243 7.30609 59C9.14261 86.5478 32.4052 108.586 60.5652 108.586Z" fill="#BBBBBB"/>
<path d="M60.5652 112.13C90.1485 112.13 114.13 88.1485 114.13 58.5652C114.13 28.982 90.1485 5 60.5652 5C30.982 5 7 28.982 7 58.5652C7 88.1485 30.982 112.13 60.5652 112.13Z" fill="#283836"/>
<path d="M98.4561 20.7717C119.303 41.619 119.303 75.6492 98.4561 96.4965C77.6088 117.344 43.5787 117.344 22.7314 96.4965" fill="black" fill-opacity="0.153846"/>
<path d="M58.791 32.7702C59.0783 34.5841 58.0606 35.9849 56.2466 36.2722C54.4327 36.5595 53.0319 35.5417 52.7446 33.7278L50.8293 21.6351C50.542 19.8212 51.5598 18.4204 53.3737 18.1331C55.1876 17.8458 56.5884 18.8635 56.8757 20.6774L58.791 32.7702Z" fill="#696969"/>
<path d="M58.808 31.0115C59.0953 32.8254 58.0776 34.2262 56.2637 34.5135C54.4498 34.8008 53.049 33.783 52.7617 31.9691L50.8464 19.8764C50.5591 18.0625 51.5768 16.6617 53.3907 16.3744C55.2046 16.0871 56.6054 17.1048 56.8927 18.9187L58.808 31.0115Z" fill="white"/>
</svg>
