<svg width="120" height="120" viewBox="0 0 120 120" fill="none" xmlns="http://www.w3.org/2000/svg">
<path d="M60.1148 107.71C88.2748 107.71 111.537 85.6718 113.374 58.124C113.374 59.3484 113.68 60.2666 113.68 61.491C113.68 90.8753 89.8052 115.056 60.1148 115.056C30.7304 115.056 6.54956 91.1814 6.54956 61.491C6.54956 60.2666 6.54956 59.3484 6.85565 58.124C8.69217 85.6718 31.9548 107.71 60.1148 107.71Z" fill="#BBBBBB"/>
<path d="M60.1148 112.278C89.698 112.278 113.68 88.2961 113.68 58.7129C113.68 29.1296 89.698 5.14764 60.1148 5.14764C30.5315 5.14764 6.54956 29.1296 6.54956 58.7129C6.54956 88.2961 30.5315 112.278 60.1148 112.278Z" fill="#283836"/>
<path d="M98.0057 20.9194C118.853 41.7667 118.853 75.7968 98.0057 96.6441C77.1584 117.491 43.1282 117.491 22.2809 96.6441" fill="black" fill-opacity="0.153846"/>
<path d="M87.8537 59.1591C86.0398 59.4464 84.639 58.4287 84.3517 56.6147C84.0644 54.8008 85.0821 53.4 86.8961 53.1127L98.9888 51.1974C100.803 50.9101 102.204 51.9279 102.491 53.7418C102.778 55.5557 101.76 56.9565 99.9464 57.2438L87.8537 59.1591Z" fill="#696969"/>
<path d="M87.8411 57.628C86.0272 57.9153 84.6264 56.8976 84.3391 55.0837C84.0518 53.2698 85.0695 51.869 86.8834 51.5817L98.9762 49.6664C100.79 49.3791 102.191 50.3968 102.478 52.2107C102.765 54.0246 101.748 55.4254 99.9338 55.7127L87.8411 57.628Z" fill="white"/>
</svg>
