<svg width="120" height="120" viewBox="0 0 120 120" fill="none" xmlns="http://www.w3.org/2000/svg">
<path d="M60.1148 107.71C88.2748 107.71 111.537 85.6718 113.374 58.124C113.374 59.3484 113.68 60.2666 113.68 61.491C113.68 90.8753 89.8052 115.056 60.1148 115.056C30.7304 115.056 6.54956 91.1814 6.54956 61.491C6.54956 60.2666 6.54956 59.3484 6.85565 58.124C8.69217 85.6718 31.9548 107.71 60.1148 107.71Z" fill="#B2B2B2"/>
<path d="M60.1148 112.278C89.698 112.278 113.68 88.2961 113.68 58.7129C113.68 29.1296 89.698 5.14764 60.1148 5.14764C30.5315 5.14764 6.54956 29.1296 6.54956 58.7129C6.54956 88.2961 30.5315 112.278 60.1148 112.278Z" fill="#283836"/>
<path d="M98.0057 20.9194C118.853 41.7667 118.853 75.7968 98.0057 96.6441C77.1584 117.491 43.1282 117.491 22.2809 96.6441" fill="black" fill-opacity="0.153846"/>
<path d="M87.6875 63.9957C85.851 63.9957 84.6266 62.7714 84.6266 60.9348C84.6266 59.0983 85.851 57.874 87.6875 57.874H99.931C101.768 57.874 102.992 59.0983 102.992 60.9348C102.992 62.7714 101.768 63.9957 99.931 63.9957H87.6875Z" fill="#BBBBBB"/>
<path d="M87.6875 61.9957C85.851 61.9957 84.6266 60.7714 84.6266 58.9348C84.6266 57.0983 85.851 55.874 87.6875 55.874H99.931C101.768 55.874 102.992 57.0983 102.992 58.9348C102.992 60.7714 101.768 61.9957 99.931 61.9957H87.6875Z" fill="white"/>
</svg>
