<svg width="120" height="120" viewBox="0 0 120 120" fill="none" xmlns="http://www.w3.org/2000/svg">
<path d="M60.1148 107.71C88.2748 107.71 111.537 85.6719 113.374 58.1241C113.374 59.3484 113.68 60.2667 113.68 61.491C113.68 90.8754 89.8052 115.056 60.1148 115.056C30.7304 115.056 6.54956 91.1814 6.54956 61.491C6.54956 60.2667 6.54956 59.3484 6.85565 58.1241C8.69217 85.6719 31.9548 107.71 60.1148 107.71Z" fill="#B2B2B2"/>
<path d="M60.1148 112.278C89.698 112.278 113.68 88.2961 113.68 58.7129C113.68 29.1296 89.698 5.14764 60.1148 5.14764C30.5315 5.14764 6.54956 29.1296 6.54956 58.7129C6.54956 88.2961 30.5315 112.278 60.1148 112.278Z" fill="#283836"/>
<path d="M98.0057 20.9194C118.853 41.7667 118.853 75.7968 98.0057 96.6441C77.1584 117.491 43.1282 117.491 22.2809 96.6441" fill="black" fill-opacity="0.153846"/>
<path d="M32.345 57.6769C34.1815 57.6769 35.4059 58.9012 35.4059 60.7377C35.4059 62.5743 34.1815 63.7986 32.345 63.7986H20.1015C18.265 63.7986 17.0406 62.5743 17.0406 60.7377C17.0406 58.9012 18.265 57.6769 20.1015 57.6769H32.345Z" fill="#696969"/>
<path d="M32.345 55.6769C34.1815 55.6769 35.4059 56.9012 35.4059 58.7377C35.4059 60.5743 34.1815 61.7986 32.345 61.7986H20.1015C18.265 61.7986 17.0406 60.5743 17.0406 58.7377C17.0406 56.9012 18.265 55.6769 20.1015 55.6769H32.345Z" fill="white"/>
</svg>
