<svg width="120" height="120" viewBox="0 0 120 120" fill="none" xmlns="http://www.w3.org/2000/svg">
<path d="M83.8524 72.1676V18.1774C83.8524 14.8125 81.3916 12 77.876 12C75.4149 12 73.7577 13.1049 71.0958 15.6161L50.5042 35.1028C50.2029 35.4041 49.9017 35.6049 49.55 35.7054L47.5411 35.856L83.8524 72.1676ZM100.125 107.675C101.682 109.182 104.143 109.182 105.599 107.675C107.106 106.118 107.156 103.708 105.599 102.201L19.6169 16.2186C18.1102 14.712 15.599 14.712 14.0924 16.2186C12.6359 17.6754 12.6359 20.2367 14.0924 21.693L100.125 107.675ZM77.9763 104.16C80.9394 104.16 82.9987 102.402 83.6517 99.4386L24.338 40.2255C22.7309 42.1339 21.8268 44.8963 21.8268 48.4119V67.8986C21.8268 75.432 25.6437 79.2992 32.7252 79.2992H47.6416C48.1437 79.2992 48.5958 79.4499 48.8971 79.7511L71.0958 100.895C73.5065 103.155 75.5154 104.16 77.9763 104.16Z" fill="white"/>
</svg>
