<svg width="120" height="120" viewBox="0 0 120 120" fill="none" xmlns="http://www.w3.org/2000/svg">
<path d="M60.1148 107.71C88.2748 107.71 111.537 85.6719 113.374 58.1241C113.374 59.3484 113.68 60.2667 113.68 61.491C113.68 90.8754 89.8052 115.056 60.1148 115.056C30.7304 115.056 6.54956 91.1814 6.54956 61.491C6.54956 60.2667 6.54956 59.3484 6.85565 58.1241C8.69217 85.6719 31.9548 107.71 60.1148 107.71Z" fill="#BBBBBB"/>
<path d="M60.1148 112.278C89.698 112.278 113.68 88.2961 113.68 58.7129C113.68 29.1296 89.698 5.14764 60.1148 5.14764C30.5315 5.14764 6.54956 29.1296 6.54956 58.7129C6.54956 88.2961 30.5315 112.278 60.1148 112.278Z" fill="#283836"/>
<path d="M98.0057 20.9194C118.853 41.7667 118.853 75.7968 98.0057 96.6441C77.1584 117.491 43.1283 117.491 22.281 96.6441" fill="black" fill-opacity="0.153846"/>
<path d="M36.7704 45.3714C38.4068 46.2051 38.9418 47.8519 38.1081 49.4882C37.2743 51.1246 35.6276 51.6596 33.9912 50.8259L23.0822 45.2675C21.4458 44.4337 20.9108 42.7869 21.7445 41.1506C22.5783 39.5142 24.225 38.9792 25.8614 39.8129L36.7704 45.3714Z" fill="#696969"/>
<path d="M36.7953 43.4587C38.4317 44.2925 38.9667 45.9393 38.133 47.5756C37.2992 49.212 35.6525 49.747 34.0161 48.9133L23.1071 43.3548C21.4707 42.5211 20.9357 40.8743 21.7694 39.238C22.6032 37.6016 24.2499 37.0666 25.8863 37.9003L36.7953 43.4587Z" fill="white"/>
</svg>
