<svg width="120" height="120" viewBox="0 0 120 120" fill="none" xmlns="http://www.w3.org/2000/svg">
<path d="M60.1148 107.71C88.2748 107.71 111.537 85.6719 113.374 58.1241C113.374 59.3484 113.68 60.2667 113.68 61.491C113.68 90.8754 89.8052 115.056 60.1148 115.056C30.7304 115.056 6.54956 91.1814 6.54956 61.491C6.54956 60.2667 6.54956 59.3484 6.85565 58.1241C8.69217 85.6719 31.9548 107.71 60.1148 107.71Z" fill="#BBBBBB"/>
<path d="M60.1148 112.278C89.698 112.278 113.68 88.2961 113.68 58.7129C113.68 29.1296 89.698 5.14764 60.1148 5.14764C30.5315 5.14764 6.54956 29.1296 6.54956 58.7129C6.54956 88.2961 30.5315 112.278 60.1148 112.278Z" fill="#283836"/>
<path d="M98.0057 20.9194C118.853 41.7667 118.853 75.7968 98.0057 96.6441C77.1584 117.491 43.1282 117.491 22.2809 96.6441" fill="black" fill-opacity="0.153846"/>
<path d="M39.4678 41.9007C40.9536 42.9802 41.2244 44.6903 40.1449 46.1761C39.0655 47.6619 37.3553 47.9327 35.8695 46.8533L25.9643 39.6567C24.4786 38.5772 24.2077 36.8671 25.2872 35.3813C26.3667 33.8955 28.0768 33.6247 29.5626 34.7041L39.4678 41.9007Z" fill="#696969"/>
<path d="M39.4868 40.0155C40.9726 41.095 41.2434 42.8052 40.164 44.2909C39.0845 45.7767 37.3743 46.0476 35.8885 44.9681L25.9833 37.7716C24.4976 36.6921 24.2267 34.9819 25.3062 33.4961C26.3857 32.0104 28.0958 31.7395 29.5816 32.819L39.4868 40.0155Z" fill="white"/>
</svg>
