<svg width="120" height="120" viewBox="0 0 120 120" fill="none" xmlns="http://www.w3.org/2000/svg">
<path d="M60.1148 107.71C88.2748 107.71 111.537 85.6719 113.374 58.1241C113.374 59.3484 113.68 60.2667 113.68 61.491C113.68 90.8754 89.8052 115.056 60.1148 115.056C30.7304 115.056 6.54956 91.1814 6.54956 61.491C6.54956 60.2667 6.54956 59.3484 6.85565 58.1241C8.69217 85.6719 31.9548 107.71 60.1148 107.71Z" fill="#BBBBBB"/>
<path d="M60.1148 112.278C89.698 112.278 113.68 88.2961 113.68 58.7129C113.68 29.1296 89.698 5.14764 60.1148 5.14764C30.5315 5.14764 6.54956 29.1296 6.54956 58.7129C6.54956 88.2961 30.5315 112.278 60.1148 112.278Z" fill="#283836"/>
<path d="M98.0057 20.9194C118.853 41.7667 118.853 75.7968 98.0057 96.6441C77.1584 117.491 43.1283 117.491 22.281 96.6441" fill="black" fill-opacity="0.153846"/>
<path d="M54.4274 33.3305C54.9949 35.0771 54.2088 36.6199 52.4622 37.1874C50.7156 37.7549 49.1728 36.9688 48.6053 35.2222L44.8218 23.5779C44.2543 21.8313 45.0404 20.2885 46.787 19.721C48.5337 19.1535 50.0764 19.9396 50.644 21.6862L54.4274 33.3305Z" fill="#696969"/>
<path d="M54.4701 31.5431C55.0377 33.2897 54.2516 34.8325 52.5049 35.4C50.7583 35.9675 49.2155 35.1814 48.648 33.4348L44.8646 21.7905C44.2971 20.0439 45.0831 18.5011 46.8298 17.9336C48.5764 17.3661 50.1192 18.1522 50.6867 19.8988L54.4701 31.5431Z" fill="white"/>
</svg>
