<svg width="120" height="120" viewBox="0 0 120 120" fill="none" xmlns="http://www.w3.org/2000/svg">
<path d="M60.1148 107.71C88.2748 107.71 111.537 85.6719 113.374 58.1241C113.374 59.3484 113.68 60.2667 113.68 61.491C113.68 90.8754 89.8052 115.056 60.1148 115.056C30.7304 115.056 6.54956 91.1814 6.54956 61.491C6.54956 60.2667 6.54956 59.3484 6.85565 58.1241C8.69217 85.6719 31.9548 107.71 60.1148 107.71Z" fill="#BBBBBB"/>
<path d="M60.1148 112.278C89.698 112.278 113.68 88.2961 113.68 58.7129C113.68 29.1296 89.698 5.14764 60.1148 5.14764C30.5315 5.14764 6.54956 29.1296 6.54956 58.7129C6.54956 88.2961 30.5315 112.278 60.1148 112.278Z" fill="#283836"/>
<path d="M98.0057 20.9194C118.853 41.7667 118.853 75.7968 98.0057 96.6441C77.1584 117.491 43.1282 117.491 22.2809 96.6441" fill="black" fill-opacity="0.153846"/>
<path d="M42.6749 38.8947C43.9735 40.1933 43.9735 41.9248 42.6749 43.2234C41.3762 44.522 39.6447 44.522 38.3461 43.2234L29.6887 34.566C28.3901 33.2673 28.3901 31.5359 29.6887 30.2372C30.9873 28.9386 32.7188 28.9386 34.0174 30.2372L42.6749 38.8947Z" fill="#696969"/>
<path d="M42.6837 37.0357C43.9824 38.3343 43.9824 40.0658 42.6837 41.3644C41.3851 42.663 39.6536 42.663 38.355 41.3644L29.6976 32.707C28.3989 31.4084 28.3989 29.6769 29.6976 28.3783C30.9962 27.0796 32.7277 27.0796 34.0263 28.3783L42.6837 37.0357Z" fill="white"/>
</svg>
